# xmcd
# 
# Track frame offsets:
#     150
#     15399
#     30426
#     45025
#     59914
#     75283
#     88100
#     99677
#     120349
#     130891
#     149420
#     159857
# 
# Disc length: 2369
# 
# Revision: 0
# Processed by: cddbd v1.5.2PL0 Copyright (c) Steve Scherf et al.
# Submitted via: BonkEnc v1.0
# 
DISCID=88093f0c
DTITLE=Sunny Sweeney - Heartbreaker's Hall Of Fame
DYEAR=2006
DGENRE=Country
TTITLE0=Refresh My Memory
TTITLE1=East Texas Pines
TTITLE2=Nexy Big Nothing
TTITLE3=Lavender Blue (With Jim Lauderdale)
TTITLE4=Ten Years Pass
TTITLE5=Here Lately
TTITLE6=Heartbreaker's Hall Of Fame
TTITLE7=Slow Swinging Western Tunes
TTITLE8=Please Be San Antone
TTITLE9=Mama's Opry
TTITLE10=If I Could
TTITLE11=16th Avenue
EXTD=
EXTT0=
EXTT1=
EXTT2=
EXTT3=
EXTT4=
EXTT5=
EXTT6=
EXTT7=
EXTT8=
EXTT9=
EXTT10=
EXTT11=
PLAYORDER=
